<?xml version="1.0" encoding="utf-8"?>
<!-- Generator: Adobe Illustrator 26.5.0, SVG Export Plug-In . SVG Version: 6.00 Build 0)  -->
<svg version="1.1" id="Capa_1" xmlns="http://www.w3.org/2000/svg" xmlns:xlink="http://www.w3.org/1999/xlink" x="0px" y="0px"
	 viewBox="0 0 198 198" style="enable-background:new 0 0 198 198;" xml:space="preserve">
<style type="text/css">
	.st0{fill:#39006B;}
</style>
<g>
	<path class="st0" d="M0,92.9h48c-0.8,35-10.7,39-23.2,40.1l-4.8,0.6v38.5l5.5-0.3c16.3-0.9,34.3-3.9,46.3-18.7
		c10.5-13,15.2-34.2,15.2-66.8V25.9H0V92.9z"/>
	<path class="st0" d="M111,25.9v67h47.4c-0.8,35-10.4,39-22.9,40.1l-4.5,0.6v38.5l5.2-0.3c16.3-0.9,34.4-3.9,46.5-18.7
		c10.5-13,15.3-34.2,15.3-66.8V25.9H111z"/>
</g>
</svg>
